<?xml version="1.0" encoding="UTF-8"?>
<svg version="1.1" xmlns="http://www.w3.org/2000/svg" width="512" height="512">
<path d="M0 0 C1.91461703 -0.00785502 1.91461703 -0.00785502 3.86791319 -0.01586872 C7.38106679 -0.02993568 10.89413146 -0.03171419 14.40730917 -0.03127182 C18.20763357 -0.03292996 22.00792237 -0.04601438 25.80822754 -0.0574646 C34.1013711 -0.08023062 42.39448893 -0.08822513 50.6876595 -0.09329104 C55.87004871 -0.09655582 61.05243056 -0.10308272 66.2348156 -0.11029243 C80.597986 -0.12984214 94.96114958 -0.14625763 109.32433414 -0.14916897 C110.24182691 -0.14935654 111.15931967 -0.14954411 112.10461524 -0.14973736 C113.96434462 -0.1501036 115.824074 -0.1504673 117.68380339 -0.15082847 C119.06844731 -0.15110269 119.06844731 -0.15110269 120.48106384 -0.15138245 C121.40529203 -0.151563 122.32952022 -0.15174354 123.28175532 -0.15192956 C138.27023958 -0.15547417 153.25858045 -0.1825217 168.24701495 -0.21988034 C183.65400823 -0.25797379 199.06093033 -0.27732649 214.46797174 -0.27762848 C223.11123783 -0.27821257 231.7543325 -0.28667457 240.3975544 -0.31562614 C247.75322809 -0.34015314 255.10866773 -0.34741358 262.46437127 -0.33237862 C266.21462638 -0.32521681 269.9644194 -0.32603541 273.7146225 -0.34878922 C277.78559136 -0.37325232 281.85551191 -0.3587246 285.92651367 -0.34057617 C287.10385781 -0.35377614 288.28120195 -0.36697611 289.49422318 -0.38057607 C297.76042532 -0.29649236 304.48148641 1.38743324 310.80782849 6.95266157 C315.36121971 11.63126229 317.75070549 17.27439079 317.99351501 23.78977966 C317.35820474 34.14533717 311.2487903 41.99596274 305.59147644 50.33033752 C303.55584697 53.33040185 301.53619055 56.3411676 299.51695251 59.35227966 C299.11640656 59.94916092 298.7158606 60.54604218 298.30317688 61.16101074 C294.95433142 66.164195 291.71278155 71.22943809 288.52476501 76.33665466 C284.41689042 82.90744713 280.1977138 89.38698537 275.87950134 95.8212738 C271.10728299 102.93973793 266.40624438 110.10401125 261.71226501 117.27415466 C260.89595777 118.52001582 260.07963285 119.7658654 259.26329041 121.01170349 C255.61977249 126.57462344 251.98195689 132.14105986 248.36618042 137.72206116 C247.22845458 139.47785471 246.08910729 141.23258578 244.94932556 142.98704529 C243.55268576 145.13837549 242.15933278 147.29184507 240.77012634 149.44798279 C226.75524647 171.01421887 210.74569096 188.70994627 184.68777317 194.96779817 C172.81298932 197.44604606 160.51505922 196.84781111 148.44219816 196.81171238 C144.60924195 196.80464629 140.77636698 196.82077316 136.94343567 196.83370972 C129.45929604 196.85522711 121.97530917 196.85525546 114.49114884 196.84708417 C108.40705266 196.84075962 102.3230007 196.84194355 96.23890495 196.84835625 C94.9353326 196.84970873 94.9353326 196.84970873 93.60542546 196.85108854 C91.83953384 196.85293988 90.07364223 196.85480244 88.30775063 196.85667609 C71.79396816 196.87320961 55.28027143 196.86457099 38.76649415 196.84769052 C23.67168328 196.83297432 8.57707111 196.84765679 -6.51771419 196.87646068 C-22.04695276 196.90587154 -37.57609967 196.91682351 -53.10536486 196.90727848 C-54.86227165 196.90625599 -56.61917846 196.90526138 -58.37608528 196.90429497 C-59.2403581 196.90381858 -60.10463093 196.90334219 -60.99509383 196.90285136 C-67.0720408 196.90069073 -73.14890054 196.91047173 -79.22582817 196.92506599 C-86.63078331 196.94260333 -94.03548457 196.94245083 -101.4404298 196.91971434 C-105.215014 196.90858886 -108.98915111 196.90537114 -112.76371574 196.92401505 C-116.86066574 196.94399089 -120.95653086 196.9250002 -125.0534668 196.90234375 C-126.23839106 196.91417948 -127.42331532 196.92601521 -128.64414638 196.93820959 C-136.87089238 196.84586903 -144.08547389 195.36408135 -150.03926128 189.29882532 C-154.60078401 183.7475525 -156.34783964 178.26460195 -156.16273499 171.08665466 C-154.64217378 159.2359987 -144.73049271 147.97609856 -138.22523499 138.14915466 C-137.29079771 136.73231532 -136.35672156 135.31523775 -135.42298889 133.89793396 C-133.53979395 131.03971493 -131.65538308 128.18230377 -129.77015686 125.32542419 C-125.98795776 119.59041883 -122.2310459 113.83897088 -118.47523499 108.08665466 C-111.77497863 97.83263178 -105.06786127 87.58312862 -98.35047913 77.34031677 C-94.64247029 71.68553326 -90.93779751 66.02867924 -87.24732971 60.36242676 C-85.54624396 57.75105273 -83.84305173 55.1410557 -82.13972473 52.53114319 C-81.33761455 51.3008459 -80.53650567 50.06989506 -79.73652649 48.83821106 C-66.92973545 29.12223247 -54.63792287 13.59169248 -31.97523499 4.89915466 C-31.35495422 4.66035583 -30.73467346 4.42155701 -30.09559631 4.17552185 C-20.25597098 0.64026585 -10.37797897 -0.02132874 0 0 Z " fill="#FF6E00" transform="translate(175.10023498535156,36.72584533691406)"/>
<path d="M0 0 C1.91461703 -0.00785502 1.91461703 -0.00785502 3.86791319 -0.01586872 C7.38106679 -0.02993568 10.89413146 -0.03171419 14.40730917 -0.03127182 C18.20763357 -0.03292996 22.00792237 -0.04601438 25.80822754 -0.0574646 C34.1013711 -0.08023062 42.39448893 -0.08822513 50.6876595 -0.09329104 C55.87004871 -0.09655582 61.05243056 -0.10308272 66.2348156 -0.11029243 C80.597986 -0.12984214 94.96114958 -0.14625763 109.32433414 -0.14916897 C110.24182691 -0.14935654 111.15931967 -0.14954411 112.10461524 -0.14973736 C113.96434462 -0.1501036 115.824074 -0.1504673 117.68380339 -0.15082847 C119.06844731 -0.15110269 119.06844731 -0.15110269 120.48106384 -0.15138245 C121.40529203 -0.151563 122.32952022 -0.15174354 123.28175532 -0.15192956 C138.27023958 -0.15547417 153.25858045 -0.1825217 168.24701495 -0.21988034 C183.65400823 -0.25797379 199.06093033 -0.27732649 214.46797174 -0.27762848 C223.11123783 -0.27821257 231.7543325 -0.28667457 240.3975544 -0.31562614 C247.75322809 -0.34015314 255.10866773 -0.34741358 262.46437127 -0.33237862 C266.21462638 -0.32521681 269.9644194 -0.32603541 273.7146225 -0.34878922 C277.78559136 -0.37325232 281.85551191 -0.3587246 285.92651367 -0.34057617 C287.10385781 -0.35377614 288.28120195 -0.36697611 289.49422318 -0.38057607 C297.76042532 -0.29649236 304.48148641 1.38743324 310.80782849 6.95266157 C315.36121971 11.63126229 317.75070549 17.27439079 317.99351501 23.78977966 C317.3652172 34.0310341 311.42608031 41.73199169 305.82054138 49.98674011 C303.79416907 52.97221128 301.78427628 55.96872441 299.77476501 58.96556091 C299.15985199 59.88202393 299.15985199 59.88202393 298.53251648 60.81700134 C294.4811898 66.87065262 290.5560528 73.00087607 286.64976501 79.14915466 C281.37379382 87.44208241 276.01504877 95.66799831 270.53941345 103.83030701 C265.56933299 111.2464903 260.66761545 118.70615174 255.77598572 126.17417908 C254.40641346 128.26400979 253.03523145 130.35277432 251.66343689 132.44114685 C250.76694434 133.80605033 249.87045987 135.17095913 248.97398376 136.53587341 C248.53690094 137.20132172 248.09981812 137.86677002 247.64949036 138.55238342 C245.01787617 142.56184504 242.40176173 146.58095577 239.79429626 150.60618591 C225.69885809 172.25983066 209.47736896 188.72854343 183.65925843 194.9638415 C171.84030484 197.44432127 159.5996369 196.83176104 147.58196604 196.78239429 C143.7695129 196.77116695 139.95711792 196.78326503 136.14466858 196.79223633 C128.70129014 196.80608808 121.25808264 196.79867449 113.81471252 196.78356075 C105.13637689 196.76661583 96.45808283 196.76992119 87.77973575 196.77365483 C72.29602949 196.77951779 56.81240485 196.76541918 41.32872009 196.7407074 C26.31827237 196.71675378 11.30793351 196.70971966 -3.70252991 196.72019958 C-20.07890613 196.73161278 -36.45523215 196.73353678 -52.83160776 196.71910149 C-54.57780643 196.71757573 -56.3240051 196.71605538 -58.07020378 196.71454048 C-58.92922981 196.71378267 -59.78825583 196.71302485 -60.67331295 196.71224407 C-66.71810962 196.70750728 -72.76288381 196.70934812 -78.80768013 196.71360588 C-86.17019319 196.71853557 -93.53260344 196.71253357 -100.89509297 196.69271158 C-104.64907053 196.68285274 -108.40289166 196.67771945 -112.15687752 196.6856041 C-116.22803408 196.69398007 -120.29877488 196.67905808 -124.36990356 196.66183472 C-125.55287161 196.66784476 -126.73583966 196.67385481 -127.95465523 196.68004698 C-135.22973217 196.62401105 -141.25466602 196.08516348 -147.30726624 191.66087341 C-153.06759728 185.56417267 -155.32032734 180.59181342 -156.27992249 172.25071716 C-155.85803185 165.26200708 -152.26354697 159.46537599 -148.53773499 153.71165466 C-148.09357239 153.01386902 -147.64940979 152.31608337 -147.19178772 151.59715271 C-144.01046921 146.62236941 -140.7532805 141.69869744 -137.46058655 136.79710388 C-133.01695884 130.17819245 -128.65284788 123.50746061 -124.28773499 116.83665466 C-123.46540383 115.58029663 -122.64305663 114.32394911 -121.82069397 113.06761169 C-120.54832582 111.12376267 -119.27597375 109.17990314 -118.00372314 107.23597717 C-112.38000411 98.64422278 -106.74536736 90.05962665 -101.10804749 81.47679138 C-97.00554506 75.2299396 -92.90637007 68.98100478 -88.82099915 62.72293091 C-86.93224142 59.83011066 -85.0414219 56.93864076 -83.15046692 54.04725647 C-82.25820816 52.68169334 -81.36693436 51.315486 -80.47676086 49.94856262 C-67.47247525 29.98127642 -55.07373622 13.75885377 -31.97523499 4.89915466 C-31.35495422 4.66035583 -30.73467346 4.42155701 -30.09559631 4.17552185 C-20.25597098 0.64026585 -10.37797897 -0.02132874 0 0 Z " fill="#FF6E00" transform="translate(175.10023498535156,264.72584533691406)"/>
</svg>
